<svg width="200" height="60" viewBox="0 0 200 60" fill="none" xmlns="http://www.w3.org/2000/svg">
  <!-- Books arranged in a row -->
  <rect x="10" y="10" width="30" height="40" rx="2" fill="#10b981" />
  <rect x="15" y="15" width="20" height="2" rx="1" fill="white" />
  <rect x="15" y="20" width="20" height="2" rx="1" fill="white" />
  <rect x="15" y="25" width="15" height="2" rx="1" fill="white" />
  
  <rect x="45" y="14" width="25" height="36" rx="2" fill="#059669" />
  <rect x="50" y="19" width="15" height="2" rx="1" fill="white" />
  <rect x="50" y="24" width="15" height="2" rx="1" fill="white" />
  <rect x="50" y="29" width="10" height="2" rx="1" fill="white" />
  
  <rect x="75" y="8" width="28" height="42" rx="2" fill="#047857" />
  <rect x="80" y="13" width="18" height="2" rx="1" fill="white" />
  <rect x="80" y="18" width="18" height="2" rx="1" fill="white" />
  <rect x="80" y="23" width="12" height="2" rx="1" fill="white" />
  
  <!-- Text: Book Library -->
  <text x="115" y="32" font-family="Arial, sans-serif" font-size="20" font-weight="bold" fill="#10b981">Book</text>
  <text x="115" y="52" font-family="Arial, sans-serif" font-size="20" font-weight="bold" fill="#047857">Library</text>
</svg> 